<svg width="26" height="26" viewBox="0 0 26 26" fill="none" xmlns="http://www.w3.org/2000/svg">
<rect width="25.515" height="25.515" rx="12.7575" fill="#FF1900"/>
<path fill-rule="evenodd" clip-rule="evenodd" d="M7.98149 7.24061C7.81983 7.08447 7.60331 6.99808 7.37857 7.00003C7.15383 7.00199 6.93885 7.09213 6.77993 7.25105C6.62101 7.40997 6.53086 7.62495 6.52891 7.84969C6.52696 8.07443 6.61335 8.29095 6.76949 8.45261L11.3063 12.9895L6.76949 17.5263C6.68762 17.6054 6.62232 17.7 6.5774 17.8045C6.53248 17.9091 6.50883 18.0216 6.50784 18.1354C6.50686 18.2492 6.52854 18.3621 6.57164 18.4674C6.61474 18.5728 6.67838 18.6685 6.75886 18.7489C6.83934 18.8294 6.93504 18.8931 7.04038 18.9362C7.14572 18.9793 7.25859 19.001 7.3724 19C7.48621 18.999 7.59869 18.9753 7.70326 18.9304C7.80784 18.8855 7.90242 18.8202 7.98149 18.7383L12.5183 14.2015L17.0552 18.7383C17.2169 18.8945 17.4334 18.9809 17.6581 18.9789C17.8829 18.9769 18.0978 18.8868 18.2568 18.7279C18.4157 18.569 18.5058 18.354 18.5078 18.1292C18.5097 17.9045 18.4233 17.688 18.2672 17.5263L13.7303 12.9895L18.2672 8.45261C18.4233 8.29095 18.5097 8.07443 18.5078 7.84969C18.5058 7.62495 18.4157 7.40997 18.2568 7.25105C18.0978 7.09213 17.8829 7.00199 17.6581 7.00003C17.4334 6.99808 17.2169 7.08447 17.0552 7.24061L12.5183 11.7775L7.98149 7.24061Z" fill="white"/>
</svg>
